<svg
            version="1.0"
            xmlns="http://www.w3.org/2000/svg"
            width="64px"
            height="40px"
            viewBox="0 0 568.000000 252.000000"
            preserveAspectRatio="xMidYMid meet"
        >
            <g
                transform="translate(0.000000,252.000000) scale(0.100000,-0.100000)"
                fill="#fff"
                stroke="none"
            >
                <path
                    d="M4167 2510 c-99 -19 -145 -96 -147 -242 l0 -58 415 0 c470 0 501 -3
       556 -59 58 -58 61 -85 57 -613 -3 -511 -1 -495 -68 -552 -52 -43 -91 -47 -383
       -44 -237 3 -276 5 -304 21 -58 31 -77 95 -49 161 8 19 136 196 285 395 149
       198 271 363 271 366 0 8 -764 6 -776 -3 -16 -11 -371 -487 -389 -522 -26 -51
       -30 -123 -10 -176 24 -64 237 -345 317 -420 35 -33 86 -70 112 -82 93 -44 129
       -47 566 -47 389 1 421 2 514 22 272 60 435 213 508 478 21 76 23 98 22 440 0
       341 -1 364 -22 439 -36 130 -87 221 -167 302 -123 123 -267 177 -520 194 -161
       11 -731 11 -788 0z"
                />
                <path
                    d="M150 1881 c-99 -20 -140 -80 -148 -212 l-5 -88 159 -3 159 -3 3 -787
       2 -788 310 0 310 0 0 790 0 790 330 0 c195 0 349 -4 379 -11 87 -18 127 -85
       101 -165 -7 -20 -133 -197 -279 -393 -147 -196 -270 -362 -275 -368 -6 -10 73
       -13 381 -13 l388 0 173 230 c233 310 237 317 237 399 -1 82 -6 91 -155 290
       -169 225 -247 290 -386 322 -56 13 -1624 22 -1684 10z"
                />
                <path
                    d="M2609 1268 c-261 -342 -475 -625 -477 -630 -2 -4 174 -8 391 -8 l394
       0 464 622 c255 342 466 625 467 630 2 4 -169 8 -381 8 l-384 0 -474 -622z"
                />
            </g>
        </svg>